<?xml version="1.0" standalone="no"?>
<!DOCTYPE svg PUBLIC "-//W3C//DTD SVG 20010904//EN"
 "http://www.w3.org/TR/2001/REC-SVG-20010904/DTD/svg10.dtd">
<svg version="1.0" xmlns="http://www.w3.org/2000/svg"
 width="1157.000000pt" height="354.000000pt" viewBox="0 0 1157.000000 354.000000"
 preserveAspectRatio="xMidYMid meet">

<g transform="translate(0.000000,354.000000) scale(0.100000,-0.100000)"
fill="#000000" stroke="none">
<path d="M50 1965 l0 -1535 1495 0 1495 0 0 1535 0 1535 -1495 0 -1495 0 0
-1535z m2950 0 l0 -1495 -1455 0 -1455 0 0 1495 0 1495 1455 0 1455 0 0 -1495z"/>
<path d="M1370 3090 c0 -71 -4 -130 -9 -130 -5 0 -45 39 -90 88 l-80 87 -131
-130 c-71 -71 -130 -132 -130 -136 0 -3 43 -39 95 -80 52 -41 93 -78 91 -84
-1 -6 -56 -11 -129 -13 l-127 -3 0 -174 0 -175 130 0 c93 0 130 -3 130 -12 0
-6 -38 -48 -85 -92 l-85 -81 125 -130 125 -130 90 95 89 95 1 -138 0 -137 168
2 167 3 5 134 c3 77 9 136 15 137 6 2 43 -39 84 -91 41 -52 77 -95 80 -95 4 0
64 58 134 128 l128 129 -96 91 -97 92 131 0 131 0 0 180 0 180 -130 0 c-103 0
-130 3 -130 14 0 7 45 48 100 91 55 43 100 81 100 84 0 6 -205 200 -243 230
-15 12 -27 4 -117 -79 l-100 -92 0 136 0 136 -170 0 -170 0 0 -130z"/>
<path d="M2755 1698 c-33 -17 -45 -40 -45 -80 0 -50 35 -88 80 -88 43 0 90 47
90 90 0 22 -9 41 -29 61 -31 30 -62 36 -96 17z m80 -33 c28 -27 31 -45 14 -78
-16 -29 -28 -37 -61 -37 -52 0 -78 80 -38 120 27 27 56 25 85 -5z"/>
<path d="M2764 1656 c-3 -8 -4 -31 -1 -52 3 -35 5 -36 12 -15 l8 24 18 -24
c10 -13 21 -21 25 -17 4 4 1 14 -6 23 -10 12 -10 18 1 31 11 14 10 18 -6 30
-24 18 -44 18 -51 0z m38 -21 c0 -5 -5 -11 -11 -13 -6 -2 -11 4 -11 13 0 9 5
15 11 13 6 -2 11 -8 11 -13z"/>
<path d="M240 1551 c-24 -7 -24 -8 -24 -111 1 -88 4 -106 17 -108 11 -2 19 9
27 40 19 69 39 99 78 115 46 19 159 14 173 -8 13 -20 12 -665 -1 -690 -7 -11
-26 -21 -50 -25 -44 -7 -76 -26 -67 -40 3 -6 90 -9 199 -9 169 0 193 2 196 16
3 17 -24 29 -65 29 -13 0 -32 9 -43 20 -19 19 -20 33 -20 353 0 192 4 338 10
347 7 11 29 15 89 15 111 0 141 -25 165 -137 4 -19 13 -28 26 -28 17 0 19 8
17 107 -2 105 -2 107 -27 114 -32 9 -667 9 -700 0z"/>
<path d="M1014 1548 c-9 -14 23 -38 52 -38 12 0 32 -9 45 -19 l24 -19 0 -336
c0 -378 3 -361 -78 -381 -26 -6 -42 -16 -42 -25 0 -12 25 -15 148 -15 82 0
151 4 154 8 8 13 -12 28 -48 36 -18 4 -41 18 -53 34 -20 27 -21 43 -24 294 -3
203 -1 264 8 261 7 -2 73 -147 147 -321 101 -235 140 -317 151 -315 9 2 25 32
39 73 36 108 227 565 235 565 5 0 8 -122 8 -270 0 -269 0 -271 -23 -294 -13
-13 -42 -26 -66 -30 -33 -5 -42 -10 -39 -24 3 -15 22 -17 196 -17 113 -1 196
3 199 8 9 15 -22 34 -67 41 -65 10 -65 12 -65 361 0 171 3 322 8 337 6 23 17
30 62 43 44 13 55 21 55 37 0 21 -3 21 -122 14 -68 -4 -126 -10 -130 -14 -5
-5 -61 -138 -126 -298 -65 -159 -123 -288 -127 -287 -5 1 -64 133 -131 295
l-122 293 -38 7 c-66 12 -222 9 -230 -4z"/>
<path d="M2115 1552 c-16 -16 -1 -32 34 -38 23 -4 50 -17 63 -31 23 -25 23
-26 26 -349 l3 -324 -25 -25 c-14 -14 -34 -25 -45 -25 -31 0 -51 -11 -51 -29
0 -14 21 -16 200 -17 182 0 200 1 200 17 0 19 -20 29 -57 29 -14 0 -37 13 -54
29 l-29 29 0 135 c0 146 0 147 58 147 40 0 89 -34 111 -77 10 -21 33 -92 50
-158 18 -67 40 -128 50 -138 39 -40 139 -40 183 0 27 24 51 72 44 89 -9 23
-30 16 -48 -16 -20 -36 -52 -39 -72 -7 -7 12 -21 56 -30 98 -21 94 -61 161
-121 197 -24 15 -45 29 -45 32 0 3 23 13 50 23 181 64 187 309 10 391 -41 19
-65 21 -272 22 -125 0 -230 -1 -233 -4z m434 -67 c80 -41 82 -269 2 -309 -35
-18 -102 -27 -140 -20 l-31 7 0 162 c0 89 3 165 7 168 12 13 134 7 162 -8z"/>
<path d="M11135 2668 c-71 -10 -145 -21 -163 -24 -30 -5 -33 -8 -30 -37 3 -30
5 -32 58 -40 30 -4 65 -14 78 -23 52 -34 52 -40 52 -649 l0 -567 -28 -28 c-18
-17 -45 -31 -68 -35 -65 -11 -86 -23 -82 -48 l3 -22 275 0 275 1 3 22 c4 23
-9 31 -84 51 -22 6 -49 20 -60 32 -18 20 -19 47 -22 692 -2 470 -6 674 -13
684 -14 16 -30 15 -194 -9z"/>
<path d="M3697 2619 c-8 -29 14 -46 67 -53 63 -8 105 -33 131 -76 19 -34 20
-53 23 -578 2 -482 1 -546 -13 -577 -20 -40 -62 -62 -138 -71 -61 -7 -82 -22
-73 -51 5 -17 27 -18 351 -19 l346 0 -3 30 c-3 29 -6 30 -74 42 -149 25 -148
23 -152 343 -3 235 -2 256 14 268 23 17 664 19 695 3 18 -10 19 -24 19 -256 0
-268 -5 -297 -56 -331 -15 -9 -57 -22 -92 -28 -66 -11 -90 -28 -80 -56 5 -12
63 -14 349 -14 l344 0 0 24 c0 29 -12 35 -89 50 -32 6 -70 18 -83 27 -53 34
-54 40 -51 627 3 489 5 545 20 573 21 37 67 61 139 71 51 8 54 10 57 39 l3 31
-343 -1 -343 -1 0 -24 c0 -29 16 -38 75 -46 58 -7 104 -35 127 -77 15 -28 18
-65 21 -258 3 -205 2 -225 -14 -237 -23 -17 -664 -19 -695 -3 -18 10 -19 23
-19 218 1 231 6 272 45 312 26 28 89 50 139 50 26 0 51 31 43 53 -3 9 -90 12
-345 13 -319 1 -341 0 -345 -17z"/>
<path d="M8762 2623 c-39 -19 -62 -59 -62 -109 0 -28 8 -44 34 -70 30 -30 40
-34 86 -34 62 0 85 11 105 50 57 111 -50 219 -163 163z"/>
<path d="M9413 2398 c-6 -7 -16 -37 -22 -66 -22 -104 -59 -146 -153 -172 -62
-17 -63 -18 -63 -51 0 -34 0 -34 59 -41 32 -4 62 -10 65 -14 3 -3 8 -168 11
-367 l5 -362 25 -43 c15 -27 42 -54 70 -70 42 -25 53 -27 160 -27 99 0 121 3
156 22 81 43 130 114 89 129 -9 4 -38 -4 -66 -16 -64 -27 -147 -30 -182 -7
-48 31 -52 65 -52 422 l0 330 133 3 132 3 0 43 c0 31 -5 46 -16 50 -9 3 -69 6
-135 6 l-118 0 -3 118 -3 117 -41 3 c-25 2 -45 -2 -51 -10z"/>
<path d="M5813 2186 c-238 -58 -379 -267 -360 -535 22 -300 193 -471 472 -471
255 1 434 136 490 372 19 81 19 238 0 311 -43 167 -161 283 -326 322 -76 18
-204 18 -276 1z m225 -82 c114 -47 164 -172 165 -409 1 -217 -40 -340 -134
-402 -38 -25 -52 -28 -124 -28 -72 0 -86 3 -124 28 -48 32 -95 100 -117 172
-22 68 -30 291 -14 382 22 134 85 228 172 260 47 17 133 16 176 -3z"/>
<path d="M6835 2194 c-163 -40 -255 -136 -255 -269 0 -100 30 -162 100 -209
20 -13 104 -52 185 -87 120 -50 158 -71 197 -109 47 -45 48 -48 48 -106 0
-119 -89 -178 -232 -155 -133 22 -181 72 -243 249 -3 7 -15 12 -27 10 -19 -2
-23 -9 -22 -40 4 -316 2 -298 27 -298 16 0 28 9 35 25 14 30 13 30 87 3 51
-19 81 -22 195 -22 155 -1 213 16 289 80 65 56 86 104 86 199 0 70 -4 87 -30
134 -47 86 -133 143 -326 217 -172 66 -209 100 -194 181 16 87 123 137 240
113 74 -15 133 -69 159 -145 32 -89 35 -95 56 -95 11 0 22 6 25 13 2 6 5 76 7
155 l3 142 -27 0 c-18 0 -29 -6 -33 -20 -8 -27 -27 -25 -93 7 -47 23 -71 28
-146 30 -50 1 -100 0 -111 -3z"/>
<path d="M7963 2186 c-67 -22 -128 -62 -172 -113 l-41 -48 6 76 c8 93 5 94
-104 74 -42 -8 -115 -19 -161 -24 -90 -10 -106 -18 -97 -49 5 -14 19 -22 53
-27 54 -8 86 -36 104 -91 13 -44 26 -1079 14 -1190 -9 -84 -25 -103 -111 -123
-62 -16 -69 -20 -69 -42 l0 -24 293 -1 293 -1 -3 26 c-3 22 -10 27 -56 37
-142 32 -142 31 -142 319 0 124 3 225 8 225 4 0 39 -7 77 -15 195 -41 353 -1
463 119 150 163 186 452 83 671 -39 85 -91 139 -168 177 -54 26 -79 32 -146
35 -51 2 -98 -2 -124 -11z m143 -145 c94 -43 119 -116 119 -346 0 -152 -3
-178 -24 -242 -25 -78 -73 -143 -125 -170 -18 -9 -55 -16 -87 -16 -70 0 -147
39 -190 97 l-29 40 0 235 c0 228 1 238 24 287 52 112 199 166 312 115z"/>
<path d="M10205 2186 c-162 -40 -274 -167 -245 -276 5 -20 18 -44 27 -52 48
-42 138 -25 168 31 14 28 14 34 0 67 -29 71 -16 113 45 144 46 24 135 27 183
6 40 -16 82 -64 95 -108 16 -50 24 -154 16 -203 l-6 -45 -77 0 c-97 0 -242
-30 -309 -64 -119 -60 -172 -140 -172 -262 0 -97 35 -165 105 -209 47 -29 53
-30 164 -30 127 0 163 11 255 74 25 17 47 31 49 31 3 0 15 -16 28 -36 61 -99
239 -96 333 5 28 30 29 31 11 50 -16 19 -20 19 -46 6 -15 -8 -44 -15 -64 -15
-60 0 -65 24 -65 338 0 165 -5 291 -12 327 -22 112 -99 188 -223 220 -70 18
-190 18 -260 1z m293 -645 c3 -157 -1 -166 -82 -206 -158 -77 -283 -19 -273
127 4 64 34 112 96 153 44 29 172 65 221 62 l35 -2 3 -134z"/>
<path d="M8770 2169 c-195 -30 -195 -30 -195 -59 0 -19 7 -26 35 -33 129 -33
125 -19 125 -425 l0 -334 -28 -24 c-15 -13 -40 -26 -55 -29 -64 -13 -77 -20
-80 -46 l-3 -25 263 1 263 1 0 24 c0 19 -7 27 -30 34 -128 38 -119 3 -123 496
-3 371 -5 416 -19 428 -9 6 -19 12 -22 11 -3 -1 -62 -10 -131 -20z"/>
<path d="M9940 400 l0 -60 -25 16 c-35 23 -82 10 -106 -29 -13 -22 -19 -50
-19 -90 0 -48 4 -62 25 -82 28 -29 79 -33 113 -9 20 14 22 14 22 0 0 -10 9
-16 25 -16 l25 0 0 165 0 165 -30 0 -30 0 0 -60z m-12 -102 c17 -17 15 -84 -4
-102 -36 -37 -74 -8 -74 56 0 39 15 58 45 58 12 0 26 -5 33 -12z"/>
<path d="M8643 436 c-37 -17 -53 -43 -53 -85 0 -36 23 -62 80 -91 47 -24 58
-43 39 -66 -13 -16 -65 -16 -101 0 -13 6 -20 3 -25 -10 -10 -27 31 -54 84 -54
60 0 99 22 113 65 16 49 -3 83 -64 116 -53 29 -69 48 -57 67 9 16 35 18 79 8
28 -7 32 -5 32 12 0 11 -6 24 -12 30 -23 18 -82 23 -115 8z"/>
<path d="M10262 440 c-65 -15 -102 -72 -102 -160 0 -95 49 -150 134 -150 58 0
96 20 96 52 0 16 -4 19 -22 14 -68 -20 -86 -19 -112 7 -22 22 -26 35 -26 80 0
75 28 111 79 104 20 -3 46 -8 59 -12 18 -6 22 -4 22 12 0 42 -63 67 -128 53z"/>
<path d="M7394 427 c-2 -7 -3 -76 -2 -152 l3 -140 88 -3 c87 -3 87 -3 87 22 0
23 -4 25 -57 28 l-58 3 0 40 0 40 50 5 c42 4 50 8 50 25 0 17 -8 20 -52 23
l-53 3 0 35 0 34 60 0 c57 0 60 1 60 25 0 25 -1 25 -85 25 -61 0 -87 -4 -91
-13z"/>
<path d="M11220 392 c0 -21 -6 -31 -20 -35 -11 -3 -20 -13 -20 -22 0 -9 9 -19
20 -22 18 -5 20 -14 20 -78 0 -87 12 -105 71 -105 35 0 39 3 39 24 0 18 -6 25
-22 28 -21 3 -23 9 -26 66 -3 61 -2 62 23 62 20 0 25 5 25 25 0 20 -5 25 -24
25 -19 0 -25 6 -28 28 -2 21 -9 28 -30 30 -25 3 -28 0 -28 -26z"/>
<path d="M7894 361 c-40 -17 -64 -60 -64 -113 0 -52 12 -85 39 -105 24 -19
126 -16 146 3 18 19 14 41 -6 35 -38 -10 -100 -5 -109 9 -21 34 -12 40 60 40
74 0 74 0 70 55 -3 58 -79 100 -136 76z m74 -68 c3 -21 -1 -23 -37 -23 -27 0
-41 4 -41 13 0 41 72 50 78 10z"/>
<path d="M8163 355 c-14 -10 -24 -11 -28 -5 -3 5 -17 10 -31 10 l-25 0 3 -112
3 -113 28 -3 27 -3 0 68 c0 79 17 113 56 113 22 0 25 4 22 27 -4 33 -24 39
-55 18z"/>
<path d="M8884 361 c-41 -18 -64 -60 -64 -118 0 -47 4 -59 29 -84 25 -25 37
-29 83 -29 59 0 95 18 85 43 -5 13 -12 14 -46 5 -33 -9 -45 -7 -66 6 -46 30
-32 45 48 48 l72 3 -2 40 c-2 26 -11 48 -26 63 -26 25 -81 36 -113 23z m76
-60 c15 -30 14 -31 -35 -31 -30 0 -45 4 -45 13 0 37 62 51 80 18z"/>
<path d="M9122 355 c-66 -29 -83 -154 -27 -202 49 -42 153 -23 142 26 -2 9
-10 14 -18 12 -8 -3 -27 -5 -44 -5 -37 -1 -58 36 -49 83 8 40 33 55 70 41 31
-12 48 -2 38 24 -7 17 -43 36 -67 36 -7 -1 -27 -7 -45 -15z"/>
<path d="M9343 363 c-59 -12 -96 -98 -73 -168 16 -47 44 -65 105 -65 78 1 115
40 115 124 0 77 -66 126 -147 109z m67 -63 c22 -22 25 -54 10 -94 -7 -20 -17
-26 -38 -26 -39 0 -52 17 -52 66 0 67 40 94 80 54z"/>
<path d="M9640 363 c-8 -3 -23 -12 -32 -21 -16 -14 -18 -13 -18 1 0 11 -8 17
-25 17 l-25 0 0 -116 0 -115 28 3 c26 3 27 4 30 78 3 81 12 100 47 100 30 0
35 -16 35 -106 l0 -74 30 0 30 0 0 94 c0 75 -4 98 -17 114 -19 23 -59 34 -83
25z"/>
<path d="M10495 363 c-78 -19 -107 -148 -47 -208 20 -21 34 -25 79 -25 47 0
59 4 84 29 24 25 29 37 29 81 0 99 -54 145 -145 123z m69 -65 c33 -47 14 -118
-32 -118 -38 0 -52 17 -52 64 0 67 52 100 84 54z"/>
<path d="M11035 355 c-19 -11 -31 -12 -33 -6 -2 6 -15 11 -28 11 -24 0 -24 0
-24 -115 l0 -115 30 0 30 0 0 74 c0 81 15 110 54 104 19 -3 21 -11 26 -88 5
-84 5 -85 33 -88 l27 -3 0 99 c0 82 -3 102 -17 115 -28 24 -65 29 -98 12z"/>
<path d="M11413 360 c-12 -5 -29 -20 -38 -33 -22 -35 -6 -71 44 -96 48 -25 55
-35 35 -51 -11 -10 -23 -11 -50 -2 -29 8 -36 8 -41 -4 -10 -27 17 -44 69 -44
39 0 54 5 73 25 43 42 28 86 -42 116 -55 23 -53 44 6 43 34 -1 41 3 41 18 0
11 -11 23 -26 28 -30 12 -42 12 -71 0z"/>
<path d="M7590 347 c0 -7 15 -58 33 -112 l34 -100 40 -3 41 -3 36 108 c20 59
36 111 36 116 0 4 -13 7 -30 7 -29 0 -31 -3 -52 -75 -12 -41 -25 -75 -28 -75
-4 0 -17 34 -29 75 -21 72 -23 75 -51 75 -18 0 -30 -5 -30 -13z"/>
<path d="M8230 356 c0 -2 20 -56 44 -119 24 -65 40 -121 36 -128 -4 -8 -11
-24 -14 -37 -7 -20 -4 -22 26 -22 l34 0 47 143 c26 78 47 148 47 156 0 8 -10
11 -27 9 -23 -3 -29 -12 -47 -65 -12 -34 -24 -65 -28 -68 -3 -4 -17 25 -29 64
-22 69 -24 71 -56 71 -18 0 -33 -2 -33 -4z"/>
<path d="M10690 265 c0 -82 3 -98 20 -115 24 -24 77 -26 108 -4 20 14 22 14
22 0 0 -10 9 -16 25 -16 l25 0 0 115 0 115 -30 0 -30 0 0 -80 c0 -76 -1 -81
-25 -92 -42 -19 -55 2 -55 93 l0 79 -30 0 -30 0 0 -95z"/>
<path d="M3000 190 c0 -93 4 -150 10 -150 6 0 10 57 10 150 0 93 -4 150 -10
150 -6 0 -10 -57 -10 -150z"/>
<path d="M70 180 c0 -87 4 -140 10 -140 6 0 10 53 10 140 0 87 -4 140 -10 140
-6 0 -10 -53 -10 -140z"/>
<path d="M1970 295 c0 -8 7 -15 15 -15 8 0 15 7 15 15 0 8 -7 15 -15 15 -8 0
-15 -7 -15 -15z"/>
<path d="M536 273 c-3 -3 -6 -17 -6 -30 0 -14 -6 -23 -15 -23 -8 0 -15 -4 -15
-10 0 -5 7 -10 15 -10 11 0 15 -13 15 -54 0 -79 13 -106 50 -106 35 0 41 17 8
22 -21 3 -23 9 -26 71 -3 66 -3 67 23 67 14 0 25 5 25 10 0 6 -11 10 -25 10
-20 0 -25 5 -25 24 0 26 -12 40 -24 29z"/>
<path d="M1786 273 c-3 -3 -6 -17 -6 -30 0 -16 -6 -23 -20 -23 -11 0 -20 -4
-20 -10 0 -5 9 -10 20 -10 18 0 20 -7 20 -68 0 -40 5 -73 12 -80 14 -14 68
-16 68 -2 0 6 -11 10 -25 10 -24 0 -25 2 -25 70 0 63 2 70 19 70 11 0 23 5 26
10 4 6 -5 10 -19 10 -21 0 -26 5 -26 24 0 26 -12 40 -24 29z"/>
<path d="M282 214 c-12 -8 -22 -10 -22 -5 0 6 -7 11 -16 11 -12 0 -15 -6 -10
-22 3 -13 6 -53 6 -90 0 -39 4 -68 10 -68 6 0 10 28 10 63 0 74 19 101 67 95
28 -3 28 -4 31 -80 2 -63 6 -78 19 -78 13 0 15 12 11 76 -3 65 -7 79 -27 95
-28 23 -49 24 -79 3z"/>
<path d="M758 215 c-30 -17 -53 -73 -43 -107 13 -42 46 -68 85 -68 38 0 84 25
75 41 -4 5 -15 3 -28 -6 -30 -21 -63 -19 -87 5 -38 38 -27 50 50 50 68 0 70 1
70 25 0 32 -42 75 -72 75 -13 -1 -35 -7 -50 -15z m86 -31 c27 -27 18 -34 -44
-34 -62 0 -71 7 -44 34 20 20 68 20 88 0z"/>
<path d="M1052 214 c-12 -8 -22 -10 -22 -5 0 6 -4 11 -10 11 -6 0 -10 -37 -10
-90 0 -53 4 -90 10 -90 6 0 10 26 10 58 0 64 19 102 51 102 10 0 19 7 19 15 0
19 -20 19 -48 -1z"/>
<path d="M1252 214 c-12 -8 -22 -10 -22 -5 0 6 -4 11 -10 11 -6 0 -10 -37 -10
-90 0 -50 4 -90 9 -90 4 0 11 30 14 66 7 71 16 89 48 97 38 10 59 -25 59 -98
0 -37 4 -65 10 -65 6 0 10 32 10 75 0 62 -4 79 -20 95 -24 24 -57 26 -88 4z"/>
<path d="M1523 220 c-13 -5 -23 -14 -23 -20 0 -12 -2 -12 35 -1 39 11 75 -3
75 -29 0 -17 -6 -20 -38 -20 -69 0 -107 -54 -66 -94 18 -18 75 -21 91 -5 8 8
13 8 17 0 17 -27 23 -5 19 67 -4 61 -9 81 -25 95 -22 18 -50 21 -85 7z m87
-109 c0 -26 -26 -51 -54 -51 -21 0 -46 17 -46 31 0 19 35 39 66 39 27 0 34 -4
34 -19z"/>
<path d="M2159 201 c-39 -39 -41 -100 -4 -136 35 -36 97 -35 130 1 54 59 12
164 -65 164 -22 0 -41 -9 -61 -29z m115 -23 c23 -32 20 -65 -9 -93 -32 -33
-68 -32 -94 1 -42 53 -16 114 49 114 29 0 43 -6 54 -22z"/>
<path d="M2482 214 c-12 -8 -22 -10 -22 -5 0 6 -4 11 -10 11 -6 0 -10 -37 -10
-90 0 -53 4 -90 10 -90 6 0 10 26 10 58 0 74 19 104 63 100 l32 -3 5 -74 c3
-47 10 -76 18 -79 9 -3 12 15 12 66 0 55 -4 75 -21 96 -23 29 -54 33 -87 10z"/>
<path d="M2753 220 c-37 -15 -26 -29 17 -23 41 6 70 -8 70 -33 0 -9 -12 -14
-38 -14 -49 0 -82 -23 -82 -59 0 -15 5 -32 12 -39 15 -15 63 -16 89 -2 13 7
19 7 19 0 0 -5 5 -10 10 -10 6 0 10 32 10 75 0 62 -4 79 -20 95 -21 21 -51 24
-87 10z m87 -103 c0 -28 -32 -58 -57 -55 -38 4 -54 35 -29 54 25 18 86 19 86
1z"/>
<path d="M1972 133 c2 -58 7 -88 16 -91 9 -3 12 19 12 87 0 75 -3 91 -15 91
-13 0 -15 -14 -13 -87z"/>
</g>
</svg>
